<svg xmlns="http://www.w3.org/2000/svg" xmlns:xlink="http://www.w3.org/1999/xlink" contentStyleType="text/css" data-diagram-type="DESCRIPTION" height="1583px" preserveAspectRatio="none" style="width:1151px;height:1583px;background:#FFFFFF;" version="1.1" viewBox="0 0 1151 1583" width="1151px" zoomAndPan="magnify"><?plantuml 1.2026.3beta6?><defs/><g><!--cluster Forensis Chat App--><g class="cluster" data-qualified-name="Forensis Chat App" data-source-line="12" id="ent0008"><rect fill="none" height="1031" rx="2.5" ry="2.5" style="stroke:#181818;stroke-width:1;" width="719.83" x="84.91" y="7"/><text fill="#000000" font-family="sans-serif" font-size="14" font-weight="700" lengthAdjust="spacing" textLength="144.0195" x="372.8152" y="21.9951">Forensis Chat App</text></g><!--cluster On-Chain Actions (ForensisChat.sol)--><g class="cluster" data-qualified-name="On-Chain Actions .ForensisChat.sol." data-source-line="30" id="ent0023"><rect fill="none" height="729" rx="2.5" ry="2.5" style="stroke:#181818;stroke-width:1;" width="299.4" x="837.74" y="808"/><text fill="#000000" font-family="sans-serif" font-size="14" font-weight="700" lengthAdjust="spacing" textLength="284.6826" x="845.0987" y="822.9951">On-Chain Actions (ForensisChat.sol)</text></g><!--entity UC_Reg--><g class="entity" data-qualified-name="Forensis Chat App.UC_Reg" data-source-line="13" id="ent0009"><ellipse cx="271.6376" cy="69.0015" fill="#F1F1F1" rx="124.2576" ry="27.2515" style="stroke:#181818;stroke-width:0.5;"/><text fill="#000000" font-family="sans-serif" font-size="14" lengthAdjust="spacing" textLength="228.416" x="157.4295" y="73.6499">Register &amp; Identity Management</text></g><!--entity UC_Login--><g class="entity" data-qualified-name="Forensis Chat App.UC_Login" data-source-line="14" id="ent0010"><ellipse cx="271.6393" cy="157.0019" fill="#F1F1F1" rx="114.6593" ry="25.3319" style="stroke:#181818;stroke-width:0.5;"/><text fill="#000000" font-family="sans-serif" font-size="14" lengthAdjust="spacing" textLength="207.9219" x="167.6784" y="161.6503">Login &amp; Session Management</text></g><!--entity UC_Sync--><g class="entity" data-qualified-name="Forensis Chat App.UC_Sync" data-source-line="15" id="ent0011"><ellipse cx="271.6412" cy="233.0022" fill="#F1F1F1" rx="64.9612" ry="15.3922" style="stroke:#181818;stroke-width:0.5;"/><text fill="#000000" font-family="sans-serif" font-size="14" lengthAdjust="spacing" textLength="93.3652" x="224.9586" y="237.6507">Sync Devices</text></g><!--entity UC_Profile--><g class="entity" data-qualified-name="Forensis Chat App.UC_Profile" data-source-line="16" id="ent0012"><ellipse cx="271.6373" cy="300.0035" fill="#F1F1F1" rx="69.1173" ry="16.2235" style="stroke:#181818;stroke-width:0.5;"/><text fill="#000000" font-family="sans-serif" font-size="14" lengthAdjust="spacing" textLength="104.1455" x="219.5645" y="304.6519">Manage Profile</text></g><!--entity UC_Msg--><g class="entity" data-qualified-name="Forensis Chat App.UC_Msg" data-source-line="17" id="ent0013"><ellipse cx="271.6352" cy="379.003" fill="#F1F1F1" rx="126.2652" ry="27.653" style="stroke:#181818;stroke-width:0.5;"/><text fill="#000000" font-family="sans-serif" font-size="14" lengthAdjust="spacing" textLength="232.6748" x="155.2978" y="383.6515">E2E 1-1 Messaging &amp; Group Chat</text></g><!--entity UC_CreateRoom--><g class="entity" data-qualified-name="Forensis Chat App.UC_CreateRoom" data-source-line="18" id="ent0014"><ellipse cx="271.6445" cy="460.0029" fill="#F1F1F1" rx="79.2645" ry="18.2529" style="stroke:#181818;stroke-width:0.5;"/><text fill="#000000" font-family="sans-serif" font-size="14" lengthAdjust="spacing" textLength="128.9395" x="207.1748" y="464.6513">Create Chat Room</text></g><!--entity UC_Block--><g class="entity" data-qualified-name="Forensis Chat App.UC_Block" data-source-line="19" id="ent0015"><ellipse cx="271.6437" cy="529.9987" fill="#F1F1F1" rx="69.3437" ry="16.2687" style="stroke:#181818;stroke-width:0.5;"/><text fill="#000000" font-family="sans-serif" font-size="14" lengthAdjust="spacing" textLength="104.7197" x="219.2838" y="534.6472">Block &amp; Report</text></g><!--entity UC_Search--><g class="entity" data-qualified-name="Forensis Chat App.UC_Search" data-source-line="20" id="ent0016"><ellipse cx="271.6407" cy="599.0001" fill="#F1F1F1" rx="76.1507" ry="17.6301" style="stroke:#181818;stroke-width:0.5;"/><text fill="#000000" font-family="sans-serif" font-size="14" lengthAdjust="spacing" textLength="121.5088" x="210.8863" y="603.6486">Search Messages</text></g><!--entity UC_Media--><g class="entity" data-qualified-name="Forensis Chat App.UC_Media" data-source-line="21" id="ent0017"><ellipse cx="271.6438" cy="671.0048" fill="#F1F1F1" rx="83.3738" ry="19.0748" style="stroke:#181818;stroke-width:0.5;"/><text fill="#000000" font-family="sans-serif" font-size="14" lengthAdjust="spacing" textLength="138.5645" x="202.3616" y="675.6532">Manage Media/Files</text></g><!--entity UC_Privacy--><g class="entity" data-qualified-name="Forensis Chat App.UC_Privacy" data-source-line="22" id="ent0018"><ellipse cx="271.6393" cy="747.9999" fill="#F1F1F1" rx="100.6993" ry="22.5399" style="stroke:#181818;stroke-width:0.5;"/><text fill="#000000" font-family="sans-serif" font-size="14" lengthAdjust="spacing" textLength="177.5977" x="182.8405" y="752.6483">Toggle Privacy/KYC Mode</text></g><!--entity UC_Delete--><g class="entity" data-qualified-name="Forensis Chat App.UC_Delete" data-source-line="23" id="ent0019"><ellipse cx="271.643" cy="819.9986" fill="#F1F1F1" rx="62.593" ry="14.9186" style="stroke:#181818;stroke-width:0.5;"/><text fill="#000000" font-family="sans-serif" font-size="14" lengthAdjust="spacing" textLength="86.9805" x="228.1528" y="824.647">Local Delete</text></g><!--entity UC_Export--><g class="entity" data-qualified-name="Forensis Chat App.UC_Export" data-source-line="24" id="ent0020"><ellipse cx="271.6423" cy="905.9965" fill="#F1F1F1" rx="170.7323" ry="36.5465" style="stroke:#181818;stroke-width:0.5;"/><text fill="#000000" font-family="sans-serif" font-size="14" lengthAdjust="spacing" textLength="325.418" x="108.9334" y="910.6449">Export Evidence (Transcript, Signatures, Root)</text></g><!--entity UC_Summary--><g class="entity" data-qualified-name="Forensis Chat App.UC_Summary" data-source-line="25" id="ent0021"><ellipse cx="271.6354" cy="1000.0031" fill="#F1F1F1" rx="99.3654" ry="22.2731" style="stroke:#181818;stroke-width:0.5;"/><text fill="#000000" font-family="sans-serif" font-size="14" lengthAdjust="spacing" textLength="174.6582" x="184.3063" y="1004.6515">Generate Chat Summary</text></g><!--entity UC_Log--><g class="entity" data-qualified-name="Forensis Chat App.UC_Log" data-source-line="27" id="ent0022"><ellipse cx="678.0632" cy="378.9966" fill="#F1F1F1" rx="110.6832" ry="24.5366" style="stroke:#181818;stroke-width:0.5;"/><text fill="#000000" font-family="sans-serif" font-size="14" lengthAdjust="spacing" textLength="199.3564" x="578.385" y="383.6451">Log Messages (Hash &amp; Sign)</text></g><!--entity UC_AddPart--><g class="entity" data-qualified-name="On-Chain Actions .ForensisChat.sol..UC_AddPart" data-source-line="31" id="ent0024"><ellipse cx="986.9352" cy="858.999" fill="#F1F1F1" rx="70.3952" ry="16.479" style="stroke:#181818;stroke-width:0.5;"/><text fill="#000000" font-family="sans-serif" font-size="14" lengthAdjust="spacing" textLength="107.3721" x="933.2492" y="863.6475">Add Participant</text></g><!--entity UC_RmPart--><g class="entity" data-qualified-name="On-Chain Actions .ForensisChat.sol..UC_RmPart" data-source-line="32" id="ent0025"><ellipse cx="986.94" cy="929" fill="#F1F1F1" rx="82.9" ry="18.98" style="stroke:#181818;stroke-width:0.5;"/><text fill="#000000" font-family="sans-serif" font-size="14" lengthAdjust="spacing" textLength="137.4639" x="918.208" y="933.6484">Remove Participant</text></g><!--entity UC_Transfer--><g class="entity" data-qualified-name="On-Chain Actions .ForensisChat.sol..UC_Transfer" data-source-line="33" id="ent0026"><ellipse cx="986.9383" cy="1005.9977" fill="#F1F1F1" rx="102.8883" ry="22.9777" style="stroke:#181818;stroke-width:0.5;"/><text fill="#000000" font-family="sans-serif" font-size="14" lengthAdjust="spacing" textLength="182.4033" x="895.7366" y="1010.6461">Transfer Room Ownership</text></g><!--entity UC_PropConfig--><g class="entity" data-qualified-name="On-Chain Actions .ForensisChat.sol..UC_PropConfig" data-source-line="34" id="ent0027"><ellipse cx="986.9379" cy="1091.9996" fill="#F1F1F1" rx="127.1979" ry="27.8396" style="stroke:#181818;stroke-width:0.5;"/><text fill="#000000" font-family="sans-serif" font-size="14" lengthAdjust="spacing" textLength="234.6504" x="869.6127" y="1096.648">Propose Config (Dispute Window)</text></g><!--entity UC_ExecConfig--><g class="entity" data-qualified-name="On-Chain Actions .ForensisChat.sol..UC_ExecConfig" data-source-line="35" id="ent0028"><ellipse cx="986.9353" cy="1171.0031" fill="#F1F1F1" rx="69.7653" ry="16.3531" style="stroke:#181818;stroke-width:0.5;"/><text fill="#000000" font-family="sans-serif" font-size="14" lengthAdjust="spacing" textLength="105.7861" x="934.0422" y="1175.6515">Execute Config</text></g><!--entity UC_VetoConfig--><g class="entity" data-qualified-name="On-Chain Actions .ForensisChat.sol..UC_VetoConfig" data-source-line="37" id="ent0029"><ellipse cx="986.9441" cy="1237.0028" fill="#F1F1F1" rx="60.6641" ry="14.5328" style="stroke:#181818;stroke-width:0.5;"/><text fill="#000000" font-family="sans-serif" font-size="14" lengthAdjust="spacing" textLength="81.6143" x="946.137" y="1241.6513">Veto Config</text></g><!--entity UC_PropRoot--><g class="entity" data-qualified-name="On-Chain Actions .ForensisChat.sol..UC_PropRoot" data-source-line="38" id="ent0030"><ellipse cx="986.9351" cy="1306.003" fill="#F1F1F1" rx="85.9151" ry="19.583" style="stroke:#181818;stroke-width:0.5;"/><text fill="#000000" font-family="sans-serif" font-size="14" lengthAdjust="spacing" textLength="144.4297" x="914.7202" y="1310.6515">Propose Merkle Root</text></g><!--entity UC_DispRoot--><g class="entity" data-qualified-name="On-Chain Actions .ForensisChat.sol..UC_DispRoot" data-source-line="39" id="ent0031"><ellipse cx="986.9352" cy="1375.997" fill="#F1F1F1" rx="63.9352" ry="15.187" style="stroke:#181818;stroke-width:0.5;"/><text fill="#000000" font-family="sans-serif" font-size="14" lengthAdjust="spacing" textLength="90.624" x="941.6232" y="1380.6455">Dispute Root</text></g><!--entity UC_ConfRoot--><g class="entity" data-qualified-name="On-Chain Actions .ForensisChat.sol..UC_ConfRoot" data-source-line="40" id="ent0032"><ellipse cx="986.9423" cy="1440.9965" fill="#F1F1F1" rx="64.5323" ry="15.3065" style="stroke:#181818;stroke-width:0.5;"/><text fill="#000000" font-family="sans-serif" font-size="14" lengthAdjust="spacing" textLength="92.2236" x="940.8305" y="1445.6449">Confirm Root</text></g><!--entity UC_Verify--><g class="entity" data-qualified-name="On-Chain Actions .ForensisChat.sol..UC_Verify" data-source-line="41" id="ent0033"><ellipse cx="986.9449" cy="1506.003" fill="#F1F1F1" rx="60.7149" ry="14.543" style="stroke:#181818;stroke-width:0.5;"/><text fill="#000000" font-family="sans-serif" font-size="14" lengthAdjust="spacing" textLength="81.7578" x="946.066" y="1510.6514">Verify Proof</text></g><!--entity user--><g class="entity" data-qualified-name="user" data-source-line="4" id="ent0002"><ellipse cx="21.9551" cy="542.35" fill="#F1F1F1" rx="8" ry="8" style="stroke:#181818;stroke-width:0.5;"/><path d="M21.9551,550.35 L21.9551,577.35 M8.9551,558.35 L34.9551,558.35 M21.9551,577.35 L8.9551,592.35 M21.9551,577.35 L34.9551,592.35" fill="none" style="stroke:#181818;stroke-width:0.5;"/><text fill="#000000" font-family="sans-serif" font-size="14" lengthAdjust="spacing" textLength="31.9102" x="6" y="606.8451">User</text></g><!--entity participant--><g class="entity" data-qualified-name="participant" data-source-line="5" id="ent0003"><ellipse cx="271.6456" cy="1234.35" fill="#F1F1F1" rx="8" ry="8" style="stroke:#181818;stroke-width:0.5;"/><path d="M271.6456,1242.35 L271.6456,1269.35 M258.6456,1250.35 L284.6456,1250.35 M271.6456,1269.35 L258.6456,1284.35 M271.6456,1269.35 L284.6456,1284.35" fill="none" style="stroke:#181818;stroke-width:0.5;"/><text fill="#000000" font-family="sans-serif" font-size="14" lengthAdjust="spacing" textLength="75.5713" x="233.86" y="1298.8451">Participant</text></g><!--entity master--><g class="entity" data-qualified-name="master" data-source-line="6" id="ent0004"><ellipse cx="678.0584" cy="1062.35" fill="#F1F1F1" rx="8" ry="8" style="stroke:#181818;stroke-width:0.5;"/><path d="M678.0584,1070.35 L678.0584,1097.35 M665.0584,1078.35 L691.0584,1078.35 M678.0584,1097.35 L665.0584,1112.35 M678.0584,1097.35 L691.0584,1112.35" fill="none" style="stroke:#181818;stroke-width:0.5;"/><text fill="#000000" font-family="sans-serif" font-size="14" lengthAdjust="spacing" textLength="92.7568" x="631.68" y="1126.8451">Room Master</text></g><!--entity thirdparty--><g class="entity" data-qualified-name="thirdparty" data-source-line="7" id="ent0005"><ellipse cx="678.0582" cy="1502.35" fill="#F1F1F1" rx="8" ry="8" style="stroke:#181818;stroke-width:0.5;"/><path d="M678.0582,1510.35 L678.0582,1537.35 M665.0582,1518.35 L691.0582,1518.35 M678.0582,1537.35 L665.0582,1552.35 M678.0582,1537.35 L691.0582,1552.35" fill="none" style="stroke:#181818;stroke-width:0.5;"/><text fill="#000000" font-family="sans-serif" font-size="14" lengthAdjust="spacing" textLength="143.3564" x="606.38" y="1566.8451">Third Party (Verifier)</text></g><!--reverse link user to participant--><g class="link" data-entity-1="ent0002" data-entity-2="ent0003" data-link-type="extension" data-source-line="9" id="lnk6"><path d="M25.3261,628.2815 C29.7361,725.4515 43.4,961.32 76.91,1038 C112.61,1119.69 188.16,1193.9 233.65,1233.63" fill="none" id="user-backto-participant" style="stroke:#181818;stroke-width:1;"/><polygon fill="none" points="24.51,610.3,19.3322,628.5535,31.3199,628.0095,24.51,610.3" style="stroke:#181818;stroke-width:1;"/></g><!--reverse link participant to master--><g class="link" data-entity-1="ent0003" data-entity-2="ent0004" data-link-type="extension" data-source-line="10" id="lnk7"><path d="M326.1648,1241.2366 C400.3648,1209.6866 550.66,1145.76 631.47,1111.39" fill="none" id="participant-backto-master" style="stroke:#181818;stroke-width:1;"/><polygon fill="none" points="309.6,1248.28,328.5125,1246.7582,323.817,1235.715,309.6,1248.28" style="stroke:#181818;stroke-width:1;"/></g><!--link user to UC_Reg--><g class="link" data-entity-1="ent0002" data-entity-2="ent0009" data-link-type="dependency" data-source-line="44" id="lnk34"><path d="M24.97,533.37 C30.79,428.62 48.98,144.94 76.91,114 C95.71,93.18 116.2719,82.5063 143.5319,75.6363" fill="none" id="user-to-UC_Reg" style="stroke:#181818;stroke-width:1;"/><polygon fill="#181818" points="149.35,74.17,139.6454,72.4907,144.5016,75.3919,141.6004,80.2481,149.35,74.17" style="stroke:#181818;stroke-width:1;"/></g><!--link user to UC_Login--><g class="link" data-entity-1="ent0002" data-entity-2="ent0010" data-link-type="dependency" data-source-line="45" id="lnk35"><path d="M23.09,533.47 C24.22,448.18 31.73,247.2 76.91,200 C97.99,177.98 121.7755,167.2607 151.5655,161.0707" fill="none" id="user-to-UC_Login" style="stroke:#181818;stroke-width:1;"/><polygon fill="#181818" points="157.44,159.85,147.8144,157.7646,152.5446,160.8672,149.442,165.5973,157.44,159.85" style="stroke:#181818;stroke-width:1;"/></g><!--link user to UC_Sync--><g class="link" data-entity-1="ent0002" data-entity-2="ent0011" data-link-type="dependency" data-source-line="46" id="lnk36"><path d="M24.37,533.63 C27.92,460.01 39.75,302.94 76.91,266 C111.75,231.36 162.6926,225.0721 205.8526,226.3521" fill="none" id="user-to-UC_Sync" style="stroke:#181818;stroke-width:1;"/><polygon fill="#181818" points="211.85,226.53,202.9725,222.265,206.8522,226.3818,202.7354,230.2614,211.85,226.53" style="stroke:#181818;stroke-width:1;"/></g><!--link user to UC_Profile--><g class="link" data-entity-1="ent0002" data-entity-2="ent0012" data-link-type="dependency" data-source-line="47" id="lnk37"><path d="M26.55,533.47 C32.99,473.28 48.53,361.02 76.91,334 C110.92,301.63 158.28,294.2086 200.4,294.2886" fill="none" id="user-to-UC_Profile" style="stroke:#181818;stroke-width:1;"/><polygon fill="#181818" points="206.4,294.3,197.4076,290.2829,201.4,294.2905,197.3924,298.2829,206.4,294.3" style="stroke:#181818;stroke-width:1;"/></g><!--link user to UC_Msg--><g class="link" data-entity-1="ent0002" data-entity-2="ent0013" data-link-type="dependency" data-source-line="48" id="lnk38"><path d="M26.81,533.54 C32.26,499.81 45.38,451.92 76.91,424 C97.59,405.69 118.4545,395.9066 145.3545,389.0766" fill="none" id="user-to-UC_Msg" style="stroke:#181818;stroke-width:1;"/><polygon fill="#181818" points="151.17,387.6,141.4624,385.9379,146.3238,388.8305,143.4312,393.6918,151.17,387.6" style="stroke:#181818;stroke-width:1;"/></g><!--link user to UC_CreateRoom--><g class="link" data-entity-1="ent0002" data-entity-2="ent0014" data-link-type="dependency" data-source-line="49" id="lnk39"><path d="M38.38,539.68 C47.46,524.1 60.41,506.54 76.91,496 C110.93,474.27 148.7802,465.521 186.1302,461.761" fill="none" id="user-to-UC_CreateRoom" style="stroke:#181818;stroke-width:1;"/><polygon fill="#181818" points="192.1,461.16,182.7446,458.0816,187.1251,461.6608,183.5459,466.0414,192.1,461.16" style="stroke:#181818;stroke-width:1;"/></g><!--link user to UC_Block--><g class="link" data-entity-1="ent0002" data-entity-2="ent0015" data-link-type="dependency" data-source-line="50" id="lnk40"><path d="M38.22,567.01 C46.86,564.34 57.9,561.15 67.91,559 C114.32,549.02 161.4933,542.2896 201.7233,537.4296" fill="none" id="user-to-UC_Block" style="stroke:#181818;stroke-width:1;"/><polygon fill="#181818" points="207.68,536.71,198.2652,533.8183,202.7161,537.3097,199.2247,541.7605,207.68,536.71" style="stroke:#181818;stroke-width:1;"/></g><!--link user to UC_Search--><g class="link" data-entity-1="ent0002" data-entity-2="ent0016" data-link-type="dependency" data-source-line="51" id="lnk41"><path d="M38.08,573.65 C69.9,577.12 139.5453,584.7098 195.9653,590.8598" fill="none" id="user-to-UC_Search" style="stroke:#181818;stroke-width:1;"/><polygon fill="#181818" points="201.93,591.51,193.4164,586.5583,196.9594,590.9682,192.5495,594.5112,201.93,591.51" style="stroke:#181818;stroke-width:1;"/></g><!--link user to UC_Media--><g class="link" data-entity-1="ent0002" data-entity-2="ent0017" data-link-type="dependency" data-source-line="52" id="lnk42"><path d="M38.28,596.49 C47.8,609.64 61.2,624.97 76.91,634 C110.75,653.45 146.9157,662.1806 183.2357,666.6906" fill="none" id="user-to-UC_Media" style="stroke:#181818;stroke-width:1;"/><polygon fill="#181818" points="189.19,667.43,180.7515,662.3514,184.2281,666.8139,179.7657,670.2905,189.19,667.43" style="stroke:#181818;stroke-width:1;"/></g><!--link user to UC_Privacy--><g class="link" data-entity-1="ent0002" data-entity-2="ent0018" data-link-type="dependency" data-source-line="53" id="lnk43"><path d="M28.1,610.35 C34.31,641.31 47.83,683.58 76.91,708 C103.08,729.97 132.2515,739.9864 165.3715,745.1464" fill="none" id="user-to-UC_Privacy" style="stroke:#181818;stroke-width:1;"/><polygon fill="#181818" points="171.3,746.07,163.023,740.7322,166.3596,745.3003,161.7915,748.6369,171.3,746.07" style="stroke:#181818;stroke-width:1;"/></g><!--link user to UC_Delete--><g class="link" data-entity-1="ent0002" data-entity-2="ent0019" data-link-type="dependency" data-source-line="54" id="lnk44"><path d="M27.45,610.19 C34.78,665.59 51.12,764.22 76.91,788 C113.38,821.62 164.9727,827.5416 207.9027,826.2416" fill="none" id="user-to-UC_Delete" style="stroke:#181818;stroke-width:1;"/><polygon fill="#181818" points="213.9,826.06,204.7831,822.3342,208.9023,826.2113,205.0252,830.3306,213.9,826.06" style="stroke:#181818;stroke-width:1;"/></g><!--link user to UC_Export--><g class="link" data-entity-1="ent0002" data-entity-2="ent0020" data-link-type="dependency" data-source-line="55" id="lnk45"><path d="M25.45,610.53 C30.64,678.85 44.91,817.28 76.91,852 C90.87,867.15 103.1557,875.8623 122.3057,883.8823" fill="none" id="user-to-UC_Export" style="stroke:#181818;stroke-width:1;"/><polygon fill="#181818" points="127.84,886.2,121.0838,879.0339,123.2281,884.2685,117.9934,886.4129,127.84,886.2" style="stroke:#181818;stroke-width:1;"/></g><!--link user to UC_Summary--><g class="link" data-entity-1="ent0002" data-entity-2="ent0021" data-link-type="dependency" data-source-line="56" id="lnk46"><path d="M22.88,610.47 C23.54,698.33 30.07,909.99 76.91,960 C101.21,985.94 131.58,996.677 166.22,1001.177" fill="none" id="user-to-UC_Summary" style="stroke:#181818;stroke-width:1;"/><polygon fill="#181818" points="172.17,1001.95,163.7603,996.8239,167.2117,1001.3059,162.7297,1004.7572,172.17,1001.95" style="stroke:#181818;stroke-width:1;"/></g><!--link UC_Msg to UC_Log--><g class="link" data-entity-1="ent0013" data-entity-2="ent0022" data-link-type="dependency" data-source-line="58" id="lnk47"><path d="M398.39,379 C452.41,379 508.98,379 561.12,379" fill="none" id="UC_Msg-to-UC_Log" style="stroke:#181818;stroke-width:1;stroke-dasharray:7,7;"/><polygon fill="#181818" points="567.12,379,558.12,375,562.12,379,558.12,383,567.12,379" style="stroke:#181818;stroke-width:1;"/><text fill="#000000" font-family="sans-serif" font-size="13" lengthAdjust="spacing" textLength="63.0068" x="473.37" y="375.0669">&#171;include&#187;</text></g><!--link master to UC_AddPart--><g class="link" data-entity-1="ent0004" data-entity-2="ent0024" data-link-type="dependency" data-source-line="60" id="lnk48"><path d="M724.73,1085.66 C754.58,1079.01 791.79,1065.46 812.74,1038 C822.58,1025.11 818.84,905.02 829.74,893 C851.46,869.05 879.7864,860.422 910.7164,857.512" fill="none" id="master-to-UC_AddPart" style="stroke:#181818;stroke-width:1;"/><polygon fill="#181818" points="916.69,856.95,907.3549,853.8106,911.712,857.4183,908.1042,861.7754,916.69,856.95" style="stroke:#181818;stroke-width:1;"/></g><!--link master to UC_RmPart--><g class="link" data-entity-1="ent0004" data-entity-2="ent0025" data-link-type="dependency" data-source-line="61" id="lnk49"><path d="M724.7,1084.63 C753.96,1077.56 790.49,1063.93 812.74,1038 C834.16,1013.05 806.5,989.26 829.74,966 C849.44,946.29 871.6734,937.3848 898.6634,932.5648" fill="none" id="master-to-UC_RmPart" style="stroke:#181818;stroke-width:1;"/><polygon fill="#181818" points="904.57,931.51,895.007,929.1545,899.6479,932.389,896.4134,937.0299,904.57,931.51" style="stroke:#181818;stroke-width:1;"/></g><!--link master to UC_Transfer--><g class="link" data-entity-1="ent0004" data-entity-2="ent0026" data-link-type="dependency" data-source-line="62" id="lnk50"><path d="M724.77,1077.92 C754.59,1068.84 794.38,1056.92 829.74,1047 C858.49,1038.94 884.5427,1031.9985 911.9527,1024.8785" fill="none" id="master-to-UC_Transfer" style="stroke:#181818;stroke-width:1;"/><polygon fill="#181818" points="917.76,1023.37,908.0434,1021.7612,912.9206,1024.6271,910.0547,1029.5043,917.76,1023.37" style="stroke:#181818;stroke-width:1;"/></g><!--link master to UC_PropConfig--><g class="link" data-entity-1="ent0004" data-entity-2="ent0027" data-link-type="dependency" data-source-line="63" id="lnk51"><path d="M724.67,1092 C760.32,1092 805.67,1092 853.42,1092" fill="none" id="master-to-UC_PropConfig" style="stroke:#181818;stroke-width:1;"/><polygon fill="#181818" points="859.42,1092,850.42,1088,854.42,1092,850.42,1096,859.42,1092" style="stroke:#181818;stroke-width:1;"/></g><!--link master to UC_ExecConfig--><g class="link" data-entity-1="ent0004" data-entity-2="ent0028" data-link-type="dependency" data-source-line="64" id="lnk52"><path d="M724.64,1106.6 C754.39,1115.88 794.18,1127.84 829.74,1137 C863.74,1145.76 896.4042,1152.9556 926.6942,1159.2156" fill="none" id="master-to-UC_ExecConfig" style="stroke:#181818;stroke-width:1;"/><polygon fill="#181818" points="932.57,1160.43,924.5658,1154.6913,927.6735,1159.418,922.9467,1162.5257,932.57,1160.43" style="stroke:#181818;stroke-width:1;"/></g><!--link participant to UC_VetoConfig--><g class="link" data-entity-1="ent0003" data-entity-2="ent0029" data-link-type="dependency" data-source-line="66" id="lnk53"><path d="M309.49,1262.61 C425.53,1258.21 778.1243,1244.8667 920.6543,1239.4767" fill="none" id="participant-to-UC_VetoConfig" style="stroke:#181818;stroke-width:1;"/><polygon fill="#181818" points="926.65,1239.25,917.5053,1235.593,921.6536,1239.4389,917.8076,1243.5872,926.65,1239.25" style="stroke:#181818;stroke-width:1;"/></g><!--link participant to UC_PropRoot--><g class="link" data-entity-1="ent0003" data-entity-2="ent0030" data-link-type="dependency" data-source-line="67" id="lnk54"><path d="M309.49,1266.17 C419.61,1272.66 742.1804,1291.6473 897.2204,1300.7773" fill="none" id="participant-to-UC_PropRoot" style="stroke:#181818;stroke-width:1;"/><polygon fill="#181818" points="903.21,1301.13,894.4607,1296.6078,898.2186,1300.8361,893.9904,1304.594,903.21,1301.13" style="stroke:#181818;stroke-width:1;"/></g><!--link participant to UC_DispRoot--><g class="link" data-entity-1="ent0003" data-entity-2="ent0031" data-link-type="dependency" data-source-line="68" id="lnk55"><path d="M309.49,1269.79 C427.17,1288.26 788.3826,1344.9792 926.6326,1366.6892" fill="none" id="participant-to-UC_DispRoot" style="stroke:#181818;stroke-width:1;"/><polygon fill="#181818" points="932.56,1367.62,924.2895,1362.2722,927.6205,1366.8443,923.0484,1370.1754,932.56,1367.62" style="stroke:#181818;stroke-width:1;"/></g><!--link participant to UC_ConfRoot--><g class="link" data-entity-1="ent0003" data-entity-2="ent0032" data-link-type="dependency" data-source-line="69" id="lnk56"><path d="M309.49,1277.04 C364.93,1296.33 473.32,1332.8 567.37,1357 C697.47,1390.48 847.2552,1417.6523 927.0852,1431.2523" fill="none" id="participant-to-UC_ConfRoot" style="stroke:#181818;stroke-width:1;"/><polygon fill="#181818" points="933,1432.26,924.7996,1426.8053,928.071,1431.4203,923.4561,1434.6917,933,1432.26" style="stroke:#181818;stroke-width:1;"/></g><!--link thirdparty to UC_Verify--><g class="link" data-entity-1="ent0005" data-entity-2="ent0033" data-link-type="dependency" data-source-line="71" id="lnk57"><path d="M750.23,1525.97 C804.59,1521.37 872.5314,1515.6058 923.0014,1511.3358" fill="none" id="thirdparty-to-UC_Verify" style="stroke:#181818;stroke-width:1;"/><polygon fill="#181818" points="928.98,1510.83,919.6748,1507.603,923.9978,1511.2515,920.3493,1515.5745,928.98,1510.83" style="stroke:#181818;stroke-width:1;"/></g><?plantuml-src RLN9Rjim4BthAmO-53OG9qYFHH0WTPOMhP30peAU2e8QouGbKY1ffqBRVoyNKHwwlebltgnyGpMujc0LQ55lB5H28xT2oS9iXUoOPYrqZ6zPZIlRDmZUp6JTO54mRfM6oOj1FG5cOES-4lZ4j1LST4pQOEiEvqHPAjL2oOmTtDlmcQpF6w4hy65wcBwY5ck1UXQ8rfjymBueV4wu-ZEVPnd8TpGEiOkX5PZSAutI20EB3RDmqtKJ-5s0Ru4pu-nBh8LtWG_mjK9fXIkZPDBvjZYqzBBuwLZKwRkgXNGUApJ6ZV24Gs1GbrKlETpYNd0qYUGnoebXu4chjMWmiOOZ9Tvzl8FB-IMKBZzpYMfNouDMkovqcHnBanMzqCWinZduAqcqY7k4iZytYczTs2LsIeyX0vgrXKpppL08wIp09tehiHBiujxrCt83HAdFgdQoSsCGUyRxYsy_5b2gYimZuFbzSDQuwJPeHreyPLFxvLk1kxrm5yqHfi-QISErwEmPh4GjcTrfD6T-EdQMuaGl6kS19UfnbAjTspBTZvt7Ot4abt52CFt2pCPhnoMS4RaKVubg7-NS1NSQkmaxwhoIZdtESwEQsP6ERwguH7GNNM07UpHNVAlsU8gyR8-vOK9hjnrXXn_VNUDc8xhaaCpKnScrK-vZeUHQr32z5QRRkM6z2LcfznbHTHSf-HKXz-HeELm1yf5BwQ_ethESww7_uwQYIjHR9or_mRGGVwRqL3FbUUoO5nBfDkDvx9WNdhNUBxPQ7mhrcB_ryBJDvzVfeQ7d-8vG93mQ54Zl0yNywjCpsN4AntNEeiV5pMA5_SmpnWsasB1k51es9mkVjYFM2EVdgKlu15TNGl9cL-7rTL74Xppv9HddwA3N71mrcSD4Rxc1Y2lxdGncegSJrb4y9soZO4xOHf4KXt_S8QCNnZy0?></g></svg>